<mxfile host="app.diagrams.net" agent="Mozilla/5.0 (Windows NT 10.0; Win64; x64) AppleWebKit/537.36 (KHTML, like Gecko) Chrome/128.0.0.0 Safari/537.36" version="24.7.12">
  <diagram name="Страница — 1" id="_KI3e8mCwMkcQwF4Ar3V">
    <mxGraphModel dx="1254" dy="1403" grid="0" gridSize="10" guides="1" tooltips="1" connect="1" arrows="1" fold="1" page="0" pageScale="1" pageWidth="827" pageHeight="1169" math="0" shadow="0">
      <root>
        <mxCell id="0" />
        <mxCell id="1" parent="0" />
        <mxCell id="F2qz2U9IttGB-BrYMOuy-3" value="" style="edgeStyle=none;curved=1;rounded=0;orthogonalLoop=1;jettySize=auto;html=1;fontSize=12;startSize=8;endSize=8;" edge="1" parent="1" source="F2qz2U9IttGB-BrYMOuy-1" target="F2qz2U9IttGB-BrYMOuy-2">
          <mxGeometry relative="1" as="geometry" />
        </mxCell>
        <mxCell id="F2qz2U9IttGB-BrYMOuy-1" value="git" style="ellipse;whiteSpace=wrap;html=1;" vertex="1" parent="1">
          <mxGeometry x="154" y="-47" width="120" height="80" as="geometry" />
        </mxCell>
        <mxCell id="F2qz2U9IttGB-BrYMOuy-8" style="edgeStyle=none;curved=1;rounded=0;orthogonalLoop=1;jettySize=auto;html=1;entryX=0.5;entryY=0;entryDx=0;entryDy=0;fontSize=12;startSize=8;endSize=8;exitX=0;exitY=0.5;exitDx=0;exitDy=0;" edge="1" parent="1" source="F2qz2U9IttGB-BrYMOuy-2" target="F2qz2U9IttGB-BrYMOuy-4">
          <mxGeometry relative="1" as="geometry" />
        </mxCell>
        <mxCell id="F2qz2U9IttGB-BrYMOuy-9" style="edgeStyle=none;curved=1;rounded=0;orthogonalLoop=1;jettySize=auto;html=1;exitX=1;exitY=0.5;exitDx=0;exitDy=0;entryX=0;entryY=0.5;entryDx=0;entryDy=0;fontSize=12;startSize=8;endSize=8;" edge="1" parent="1" source="F2qz2U9IttGB-BrYMOuy-2" target="F2qz2U9IttGB-BrYMOuy-6">
          <mxGeometry relative="1" as="geometry" />
        </mxCell>
        <mxCell id="F2qz2U9IttGB-BrYMOuy-2" value="git clone &quot;URL&quot;" style="whiteSpace=wrap;html=1;" vertex="1" parent="1">
          <mxGeometry x="154" y="163" width="120" height="60" as="geometry" />
        </mxCell>
        <mxCell id="F2qz2U9IttGB-BrYMOuy-10" style="edgeStyle=none;curved=1;rounded=0;orthogonalLoop=1;jettySize=auto;html=1;fontSize=12;startSize=8;endSize=8;" edge="1" parent="1" source="F2qz2U9IttGB-BrYMOuy-4" target="F2qz2U9IttGB-BrYMOuy-2">
          <mxGeometry relative="1" as="geometry">
            <Array as="points">
              <mxPoint x="-86" y="-133" />
            </Array>
          </mxGeometry>
        </mxCell>
        <mxCell id="F2qz2U9IttGB-BrYMOuy-4" value="wrong URL" style="whiteSpace=wrap;html=1;" vertex="1" parent="1">
          <mxGeometry x="-70" y="260" width="120" height="60" as="geometry" />
        </mxCell>
        <mxCell id="F2qz2U9IttGB-BrYMOuy-12" value="" style="edgeStyle=none;curved=1;rounded=0;orthogonalLoop=1;jettySize=auto;html=1;fontSize=12;startSize=8;endSize=8;" edge="1" parent="1" source="F2qz2U9IttGB-BrYMOuy-6" target="F2qz2U9IttGB-BrYMOuy-11">
          <mxGeometry relative="1" as="geometry" />
        </mxCell>
        <mxCell id="F2qz2U9IttGB-BrYMOuy-6" value="right URL" style="whiteSpace=wrap;html=1;" vertex="1" parent="1">
          <mxGeometry x="381" y="93" width="120" height="60" as="geometry" />
        </mxCell>
        <mxCell id="F2qz2U9IttGB-BrYMOuy-14" value="" style="edgeStyle=none;curved=1;rounded=0;orthogonalLoop=1;jettySize=auto;html=1;fontSize=12;startSize=8;endSize=8;" edge="1" parent="1" source="F2qz2U9IttGB-BrYMOuy-11">
          <mxGeometry relative="1" as="geometry">
            <mxPoint x="405" y="565" as="targetPoint" />
          </mxGeometry>
        </mxCell>
        <mxCell id="F2qz2U9IttGB-BrYMOuy-11" value="меняем файлы в папке" style="whiteSpace=wrap;html=1;" vertex="1" parent="1">
          <mxGeometry x="381" y="273" width="120" height="60" as="geometry" />
        </mxCell>
        <mxCell id="F2qz2U9IttGB-BrYMOuy-16" value="" style="edgeStyle=none;curved=1;rounded=0;orthogonalLoop=1;jettySize=auto;html=1;fontSize=12;startSize=8;endSize=8;" edge="1" parent="1" source="F2qz2U9IttGB-BrYMOuy-17" target="F2qz2U9IttGB-BrYMOuy-15">
          <mxGeometry relative="1" as="geometry" />
        </mxCell>
        <mxCell id="F2qz2U9IttGB-BrYMOuy-25" value="" style="edgeStyle=none;curved=1;rounded=0;orthogonalLoop=1;jettySize=auto;html=1;fontSize=12;startSize=8;endSize=8;" edge="1" parent="1" source="F2qz2U9IttGB-BrYMOuy-13" target="F2qz2U9IttGB-BrYMOuy-24">
          <mxGeometry relative="1" as="geometry" />
        </mxCell>
        <mxCell id="F2qz2U9IttGB-BrYMOuy-13" value="git commit -m &quot;коммент&quot;" style="whiteSpace=wrap;html=1;" vertex="1" parent="1">
          <mxGeometry x="381" y="636" width="120" height="60" as="geometry" />
        </mxCell>
        <mxCell id="F2qz2U9IttGB-BrYMOuy-15" value="git add ." style="whiteSpace=wrap;html=1;" vertex="1" parent="1">
          <mxGeometry x="381" y="523" width="120" height="60" as="geometry" />
        </mxCell>
        <mxCell id="F2qz2U9IttGB-BrYMOuy-18" value="" style="edgeStyle=none;curved=1;rounded=0;orthogonalLoop=1;jettySize=auto;html=1;fontSize=12;startSize=8;endSize=8;exitX=0.5;exitY=1;exitDx=0;exitDy=0;" edge="1" parent="1" source="F2qz2U9IttGB-BrYMOuy-15" target="F2qz2U9IttGB-BrYMOuy-13">
          <mxGeometry relative="1" as="geometry" />
        </mxCell>
        <mxCell id="F2qz2U9IttGB-BrYMOuy-17" value="cd &quot;Название папки&quot;" style="rounded=0;whiteSpace=wrap;html=1;" vertex="1" parent="1">
          <mxGeometry x="381" y="397" width="120" height="60" as="geometry" />
        </mxCell>
        <mxCell id="F2qz2U9IttGB-BrYMOuy-23" value="" style="edgeStyle=none;curved=1;rounded=0;orthogonalLoop=1;jettySize=auto;html=1;fontSize=12;startSize=8;endSize=8;" edge="1" parent="1" source="F2qz2U9IttGB-BrYMOuy-22" target="F2qz2U9IttGB-BrYMOuy-17">
          <mxGeometry relative="1" as="geometry" />
        </mxCell>
        <mxCell id="F2qz2U9IttGB-BrYMOuy-22" value="если не выбрать папку репозитория, будет ошибка" style="rounded=1;whiteSpace=wrap;html=1;" vertex="1" parent="1">
          <mxGeometry x="99" y="389" width="140" height="76" as="geometry" />
        </mxCell>
        <mxCell id="F2qz2U9IttGB-BrYMOuy-27" value="" style="edgeStyle=none;curved=1;rounded=0;orthogonalLoop=1;jettySize=auto;html=1;fontSize=12;startSize=8;endSize=8;" edge="1" parent="1" source="F2qz2U9IttGB-BrYMOuy-24" target="F2qz2U9IttGB-BrYMOuy-26">
          <mxGeometry relative="1" as="geometry" />
        </mxCell>
        <mxCell id="F2qz2U9IttGB-BrYMOuy-24" value="git push" style="whiteSpace=wrap;html=1;" vertex="1" parent="1">
          <mxGeometry x="381" y="785" width="120" height="60" as="geometry" />
        </mxCell>
        <mxCell id="F2qz2U9IttGB-BrYMOuy-26" value="авторизация в GitHub" style="whiteSpace=wrap;html=1;" vertex="1" parent="1">
          <mxGeometry x="381" y="912" width="120" height="60" as="geometry" />
        </mxCell>
      </root>
    </mxGraphModel>
  </diagram>
</mxfile>
